<?xml version="1.0" ?><svg data-name="Layer 1" id="Layer_1" viewBox="0 0 512 512" xmlns="http://www.w3.org/2000/svg"><path d="M234.94,144.51h42.2a14,14,0,0,0,14-14V88.27a14,14,0,0,0-14-14h-42.2a14.06,14.06,0,0,0-14,14v42.2A14.06,14.06,0,0,0,234.94,144.51Z"/><path d="M208.68,139H77.52a10.17,10.17,0,0,0-10.17,10.18v95.32a10.17,10.17,0,0,0,10.17,10.18H98.16V461.47a10.17,10.17,0,0,0,10.18,10.17h95.85V451.29H118.52V254.64h85.67V234.28H162.87l52.36-84.5A27.71,27.71,0,0,1,208.68,139ZM108.34,234.28H87.7v-75h47.22l-19.67,29.23,42.49-8,4.14,53.72Z"/><path d="M434.48,139H303.39a27.61,27.61,0,0,1-7.12,11.37l52,83.95H307.81v20.36h85.67V451.29H307.81v20.35h95.85a10.17,10.17,0,0,0,10.18-10.17V254.64h20.64a10.17,10.17,0,0,0,10.17-10.18V149.14A10.17,10.17,0,0,0,434.48,139ZM424.3,234.28h-75l4.13-53.72,42.49,8-19.66-29.23H424.3Z"/><polygon points="217.75 159.31 217.75 234.28 217.75 254.63 217.75 451.29 217.75 471.24 294.25 471.24 294.25 451.29 294.25 254.63 294.25 234.28 294.25 159.31 294.25 155.92 217.75 155.92 217.75 159.31"/><path d="M389.5,126.69c11.64,0,19.34-4.15,22.89-12.36C419.1,98.87,410.47,72,392.78,53.1l-1-1.05c-8.6-8.78-17.72-12.47-27.92-11.54-27.31,2.67-53.38,37.78-59,45.8v28.15c.83-.54,1.73-1.13,2.7-1.73l1.14-.69c.63-.39,1.26-.78,1.95-1.18l1.64-1,1.83-1,2-1.08c.6-.32,1.2-.65,1.83-1s1.53-.78,2.32-1.17l1.88-.92,2.58-1.2,2-.88c.92-.4,1.85-.8,2.8-1.19.69-.29,1.39-.57,2.1-.85q1.47-.58,3-1.14c15.8-5.89,35.75-10.25,58-8l-87.77,32.22v3H389.5Z"/><path d="M122.5,126.69h84.64v-3l-38.67-14.2-49-18c21.89-2.19,41.52,2,57.19,7.71,1.24.45,2.47.91,3.66,1.38l1.36.56c1.21.49,2.41,1,3.57,1.49l1.18.54c1.16.51,2.3,1,3.39,1.55l1.1.54c1.06.51,2.11,1,3.11,1.55.38.19.73.38,1.1.58.94.49,1.87,1,2.75,1.47l1.17.67c.78.44,1.57.88,2.3,1.31.53.31,1,.6,1.49.9l1.6,1c1,.61,1.89,1.19,2.72,1.74V86.31c-5.63-8-31.77-43.15-59-45.8-1.07-.1-2.11-.15-3.16-.15-8.93,0-17,3.82-24.7,11.64l-1,1.09C101.53,72,92.9,98.87,99.61,114.33,103.16,122.54,110.86,126.69,122.5,126.69Z"/></svg>